<svg width="36" height="36" viewBox="0 0 36 36" fill="none" xmlns="http://www.w3.org/2000/svg">
<circle cx="18" cy="18" r="18" fill="white"/>
<path d="M25.3013 10.08H20.7291C20.3874 10.08 20.1104 10.357 20.1104 10.6988C20.1104 11.0405 20.3874 11.3175 20.7291 11.3175H23.8075L18.8476 16.2775C18.6059 16.5191 18.6059 16.9109 18.8476 17.1525C19.0892 17.3941 19.481 17.3942 19.7226 17.1525L24.6826 12.1926V15.2709C24.6826 15.6127 24.9596 15.8897 25.3013 15.8897C25.6431 15.8897 25.9201 15.6127 25.9201 15.2709V10.6988C25.9201 10.362 25.6464 10.08 25.3013 10.08Z" fill="#23785B"/>
<path d="M17.1526 18.8475C16.9109 18.6059 16.5192 18.6059 16.2775 18.8475L11.3176 23.8075V20.7291C11.3176 20.3874 11.0406 20.1104 10.6988 20.1104C10.3571 20.1104 10.0801 20.3874 10.0801 20.7291V25.3013C10.0801 25.6374 10.354 25.92 10.6988 25.92H15.271C15.6128 25.92 15.8898 25.643 15.8898 25.3013C15.8898 24.9595 15.6128 24.6825 15.271 24.6825H12.1926L17.1526 19.7226C17.3942 19.4809 17.3942 19.0891 17.1526 18.8475Z" fill="#23785B"/>
</svg>
