<svg width="32" height="48" viewBox="0 0 32 48" fill="none" xmlns="http://www.w3.org/2000/svg">
<path d="M16 6.12283C10.5412 6.12283 6.09882 10.5827 6.09882 16.063C6.09882 21.5433 10.5412 26.0032 16 26.0032C21.4588 26.0032 25.9012 21.5433 25.9012 16.063C25.9012 10.5827 21.4588 6.12283 16 6.12283ZM16 24.4724C11.3788 24.4724 7.62353 20.7024 7.62353 16.063C7.62353 11.4236 11.3788 7.65354 16 7.65354C20.6212 7.65354 24.3765 11.4236 24.3765 16.063C24.3765 20.7024 20.6212 24.4724 16 24.4724Z" fill="#23785B"/>
<path d="M16 0C7.18118 0 0 7.20945 0 16.063C0 24.652 14.7482 46.1764 15.3694 47.0929L16 48L16.6306 47.0929C17.2518 46.1764 32 24.652 32 16.063C32 7.20945 24.8188 0 16 0ZM16 45.2882C13.1482 41.0268 1.52471 23.2157 1.52471 16.063C1.52471 8.05039 8.01882 1.53071 16 1.53071C23.9812 1.53071 30.4753 8.05039 30.4753 16.063C30.4753 23.2157 18.8518 41.0268 16 45.2882Z" fill="#23785B"/>
</svg>
