<svg width="45" height="58" viewBox="0 0 45 58" fill="none" xmlns="http://www.w3.org/2000/svg">
<path fill-rule="evenodd" clip-rule="evenodd" d="M8.73623 19.2941C9.32546 19.4906 9.96076 19.1684 10.1551 18.5741C11.9184 13.1955 16.8793 9.582 22.5 9.582C29.6677 9.582 35.4995 15.4633 35.4995 22.693C35.4995 28.2805 33.018 31.6187 31.0243 34.3012C29.5738 36.2522 28.3212 37.9377 28.3212 39.9816C28.3212 40.1162 28.3195 40.2494 28.3164 40.3817H23.6232V37.7793C23.6232 37.1536 23.1204 36.6465 22.5 36.6465C21.8796 36.6465 21.3768 37.1536 21.3768 37.7793V40.3817H16.6832C16.6801 40.2494 16.6783 40.1162 16.6783 39.9816C16.6783 37.9373 15.4257 36.2522 13.9752 34.3008C12.5068 32.325 10.8426 30.0855 10.0174 26.9034C9.86028 26.2981 9.24605 25.9357 8.64629 26.0941C8.04653 26.252 7.6872 26.8716 7.84427 27.4765C8.78098 31.0886 10.6645 33.6233 12.1782 35.6597C13.4373 37.354 14.432 38.6922 14.432 39.9816C14.432 40.5242 14.4548 41.0534 14.4991 41.5583V51.1403C14.4991 51.1708 14.5013 51.2005 14.5035 51.2301C14.5044 51.2372 14.5039 51.2447 14.5048 51.2518C14.5088 51.2938 14.5153 51.3345 14.5237 51.3753V51.3761C14.9137 53.2214 15.9123 54.8994 17.3364 56.1008C18.7878 57.3256 20.6217 58 22.5 58C24.3783 58 26.2118 57.3256 27.6636 56.1008C29.0873 54.8994 30.0863 53.2214 30.4759 51.3761C30.4759 51.3757 30.4763 51.3753 30.4763 51.3748C30.4847 51.3345 30.4908 51.2938 30.4952 51.2518C30.4956 51.2447 30.4956 51.2372 30.4961 51.2301C30.4983 51.2 30.5005 51.1704 30.5005 51.1398V41.5583C30.5448 41.0534 30.568 40.5242 30.568 39.9816C30.568 38.6922 31.5627 37.354 32.8218 35.6597C34.8997 32.864 37.7458 29.0354 37.7458 22.693C37.7458 14.2141 30.9063 7.31638 22.5 7.31638C15.9083 7.31638 10.0906 11.5547 8.0224 17.863C7.82759 18.4569 8.14744 19.0976 8.73623 19.2941ZM22.5 55.7344C20.2163 55.7344 18.1569 54.3414 17.1811 52.2727H27.8189C26.8427 54.3414 24.7832 55.7344 22.5 55.7344ZM28.2545 50.007H16.7455V47.46H28.2545V50.007ZM28.2545 45.1944H16.7455V42.6473H28.2545V45.1944Z" fill="black"/>
<path fill-rule="evenodd" clip-rule="evenodd" d="M22.5 5.28395C23.1204 5.28395 23.6232 4.77684 23.6232 4.15114V1.13281C23.6232 0.507111 23.1204 0 22.5 0C21.8796 0 21.3768 0.507111 21.3768 1.13281V4.15114C21.3768 4.77684 21.8796 5.28395 22.5 5.28395Z" fill="black"/>
<path fill-rule="evenodd" clip-rule="evenodd" d="M1.12318 23.8258H4.11584C4.73622 23.8258 5.23902 23.3187 5.23902 22.693C5.23902 22.0673 4.73622 21.5602 4.11584 21.5602H1.12318C0.502798 21.5602 0 22.0673 0 22.693C0 23.3187 0.502798 23.8258 1.12318 23.8258Z" fill="black"/>
<path fill-rule="evenodd" clip-rule="evenodd" d="M27.6425 24.9816C27.6425 24.3559 27.1397 23.8488 26.5193 23.8488H18.4807C17.8603 23.8488 17.3575 24.3559 17.3575 24.9816C17.3575 25.6073 17.8603 26.1144 18.4807 26.1144H21.3768V28.7168C21.3768 29.3425 21.8796 29.8496 22.5 29.8496C23.1204 29.8496 23.6232 29.3425 23.6232 28.7168V26.1144H26.5193C27.1397 26.1144 27.6425 25.6073 27.6425 24.9816Z" fill="black"/>
<path fill-rule="evenodd" clip-rule="evenodd" d="M8.70639 10.3829C8.92577 10.6042 9.21314 10.7148 9.50052 10.7148C9.78789 10.7148 10.0753 10.6042 10.2946 10.3829C10.7334 9.94043 10.7334 9.22313 10.2946 8.78107L8.17859 6.64687C7.73985 6.20436 7.02865 6.20436 6.5899 6.64687C6.1516 7.08893 6.1516 7.80623 6.5899 8.24873L8.70639 10.3829Z" fill="black"/>
<path fill-rule="evenodd" clip-rule="evenodd" d="M6.60965 39.8524C6.89702 39.8524 7.1844 39.7418 7.40377 39.5206L9.51982 37.3864C9.95856 36.9438 9.95856 36.227 9.51982 35.7845C9.08108 35.342 8.36988 35.342 7.93158 35.7845L5.81508 37.9187C5.37678 38.3612 5.37678 39.0785 5.81508 39.5206C6.03446 39.7418 6.32183 39.8524 6.60965 39.8524Z" fill="black"/>
<path fill-rule="evenodd" clip-rule="evenodd" d="M35.4995 10.7148C35.7869 10.7148 36.0742 10.6042 36.2936 10.3829L38.4097 8.24873C38.8484 7.80623 38.8484 7.08893 38.4097 6.64642C37.9714 6.20392 37.2602 6.20436 36.8214 6.64642L34.7054 8.78062C34.2666 9.22313 34.2666 9.94043 34.7049 10.3829C34.9243 10.6042 35.2121 10.7148 35.4995 10.7148Z" fill="black"/>
<path fill-rule="evenodd" clip-rule="evenodd" d="M35.4802 35.7845C35.0414 36.2265 35.0414 36.9438 35.4802 37.3864L37.5962 39.5206C37.8156 39.7418 38.103 39.8524 38.3904 39.8524C38.6777 39.8524 38.9651 39.7418 39.1845 39.5206C39.6232 39.0785 39.6232 38.3612 39.1845 37.9187L37.0684 35.7845C36.6297 35.342 35.9185 35.342 35.4802 35.7845Z" fill="black"/>
<path fill-rule="evenodd" clip-rule="evenodd" d="M40.8842 23.8258H43.8768C44.4972 23.8258 45 23.3187 45 22.693C45 22.0673 44.4972 21.5602 43.8768 21.5602H40.8842C40.2638 21.5602 39.761 22.0673 39.761 22.693C39.761 23.3187 40.2638 23.8258 40.8842 23.8258Z" fill="black"/>
<path fill-rule="evenodd" clip-rule="evenodd" d="M22.5 32.1152C21.8814 32.1152 21.3768 32.6241 21.3768 33.248C21.3768 33.872 21.8814 34.3809 22.5 34.3809C23.1186 34.3809 23.6232 33.872 23.6232 33.248C23.6232 32.6241 23.1186 32.1152 22.5 32.1152Z" fill="black"/>
<path fill-rule="evenodd" clip-rule="evenodd" d="M9.50052 22.693C9.50052 22.069 8.99596 21.5602 8.37734 21.5602C7.75827 21.5602 7.25416 22.069 7.25416 22.693C7.25416 23.3169 7.75827 23.8258 8.37734 23.8258C8.99596 23.8258 9.50052 23.3169 9.50052 22.693Z" fill="black"/>
</svg>
