<svg width="50" height="52" viewBox="0 0 50 52" fill="none" xmlns="http://www.w3.org/2000/svg">
<path d="M18.8469 16.5904C15.904 18.4697 14.1007 21.6721 14.0352 25.1331C14.0352 25.612 14.4279 26 14.9122 26C15.3968 26 15.7896 25.612 15.7896 25.1331C15.8498 22.2787 17.3323 19.6373 19.7512 18.0753C20.1584 17.825 20.2865 17.2982 20.0395 16.8923C19.7922 16.4868 19.2609 16.352 18.8469 16.5904Z" fill="black"/>
<path d="M45.6139 21.6665C43.5307 21.6693 41.7358 23.1174 41.3166 25.1331H30.613C30.4102 24.1842 29.8898 23.3304 29.1357 22.7091L32.0995 17.3335H35.1762C35.6267 19.5131 37.6742 21.0016 39.9144 20.7779C42.1546 20.5545 43.8596 18.6911 43.8596 16.4666C43.8596 14.2422 42.1546 12.3787 39.9144 12.1554C37.6742 11.9316 35.6267 13.4205 35.1762 15.6002H32.4561V9.89203L35.4508 6.93323H39.5622C40.0124 9.11285 42.0602 10.6018 44.3005 10.378C46.5407 10.1547 48.2456 8.29123 48.2456 6.06677C48.2456 3.84192 46.5407 1.97888 44.3005 1.75513C42.0602 1.53177 40.0124 3.02029 39.5622 5.19992H35.4508C34.9858 5.20111 34.5401 5.38361 34.2104 5.70773L33.4583 6.4512C32.842 6.22586 32.2148 6.03107 31.5787 5.86801V1.73331C31.5775 0.776398 30.7929 0.00119019 29.8244 0H22.807C21.8384 0.00119019 21.0538 0.776398 21.0526 1.73331V5.86722C19.1457 6.34766 17.3174 7.0939 15.6233 8.08255L12.6808 5.17493C12.3527 4.84088 11.901 4.65283 11.4296 4.65402H11.428C10.961 4.65204 10.5129 4.83731 10.1868 5.16779L5.23816 10.0563C4.90206 10.38 4.71213 10.8235 4.71053 11.2869C4.70932 11.7507 4.89644 12.1954 5.23053 12.5211L8.17988 15.4355C7.17923 17.1097 6.42432 18.916 5.93725 20.8001H1.75435C0.785824 20.8013 0.00120464 21.5765 0 22.5334V29.4666C0.00120464 30.4235 0.785824 31.1987 1.75435 31.1999H5.93725C6.42432 33.084 7.17923 34.8903 8.17988 36.5645L5.23816 39.4709C4.90206 39.7946 4.71213 40.2382 4.71053 40.7016C4.70932 41.1653 4.89644 41.6101 5.23053 41.9354L10.1792 46.8243C10.5064 47.1587 10.9574 47.3472 11.4284 47.346H11.43C11.8978 47.348 12.3459 47.1627 12.6732 46.8322L15.6233 43.9178C17.3174 44.9065 19.1457 45.6527 21.0526 46.1332V50.2667C21.0538 51.2236 21.8384 51.9988 22.807 52H29.8244C30.7929 51.9988 31.5775 51.2236 31.5787 50.2667V46.132C32.2148 45.9689 32.842 45.7741 33.4583 45.5488L34.2104 46.2923C34.5401 46.6164 34.9858 46.7989 35.4508 46.8001H39.5622C40.0124 48.9797 42.0602 50.4682 44.3005 50.2449C46.5407 50.0211 48.2456 48.1581 48.2456 45.9332C48.2456 43.7088 46.5407 41.8453 44.3005 41.622C42.0602 41.3982 40.0124 42.8871 39.5622 45.0668H35.4508L32.4561 42.108V36.3998H35.1762C35.6267 38.5795 37.6742 40.0684 39.9144 39.8446C42.1546 39.6213 43.8596 37.7578 43.8596 35.5334C43.8596 33.3089 42.1546 31.4455 39.9144 31.2221C37.6742 30.9984 35.6267 32.4869 35.1762 34.6665H32.0995L29.1357 29.2909C29.8898 28.6696 30.4102 27.8158 30.613 26.8669H41.3166C41.7784 29.1008 43.9134 30.5997 46.201 30.2942C48.4882 29.9891 50.145 27.9844 49.99 25.7092C49.835 23.434 47.922 21.6665 45.6139 21.6665ZM43.8596 3.46661C45.3128 3.46661 46.4909 4.63062 46.4909 6.06677C46.4909 7.50253 45.3128 8.66653 43.8596 8.66653C42.406 8.66653 41.2278 7.50253 41.2278 6.06677C41.2295 4.63141 42.4068 3.4682 43.8596 3.46661ZM43.8596 43.3335C45.3128 43.3335 46.4909 44.4975 46.4909 45.9332C46.4909 47.3694 45.3128 48.5334 43.8596 48.5334C42.406 48.5334 41.2278 47.3694 41.2278 45.9332C41.2295 44.4979 42.4068 43.3351 43.8596 43.3335ZM26.3157 28.6002C24.8625 28.6002 23.6839 27.4358 23.6839 26C23.6839 24.5642 24.8625 23.3998 26.3157 23.3998C27.7689 23.3998 28.9474 24.5642 28.9474 26C28.9458 27.4354 27.7685 28.5986 26.3157 28.6002ZM39.4735 13.8669C40.9267 13.8669 42.1052 15.0309 42.1052 16.4666C42.1052 17.9028 40.9267 19.0668 39.4735 19.0668C38.0203 19.0668 36.8418 17.9028 36.8418 16.4666C36.8434 15.0312 38.0207 13.8684 39.4735 13.8669ZM30.5114 44.6022C30.1099 44.6899 29.8244 45.0418 29.8244 45.448V50.2667H22.807V45.448C22.807 45.0406 22.5199 44.6883 22.1175 44.6014C19.9319 44.1281 17.8483 43.2783 15.9614 42.0905C15.6145 41.8739 15.1619 41.9231 14.8712 42.2095L11.4276 45.6067L6.4713 40.7047L9.90973 37.3076C10.2005 37.0203 10.2502 36.5724 10.0298 36.23C8.82797 34.3658 7.96746 32.3068 7.48801 30.1482C7.40008 29.7503 7.0435 29.467 6.63152 29.4666H1.75435V22.5334H6.63152C7.0435 22.5334 7.40008 22.2497 7.48801 21.8522C7.96746 19.6932 8.82797 17.6342 10.0298 15.77C10.2502 15.4276 10.2005 14.9797 9.90973 14.6928L6.4713 11.2901L11.4328 6.39328L14.8712 9.79047C15.1619 10.0777 15.6153 10.1273 15.9618 9.90948C17.8487 8.72168 19.9323 7.87189 22.1175 7.39899C22.5203 7.31171 22.807 6.95901 22.807 6.55197V1.73331H29.8244V6.55197C29.8244 6.95822 30.1099 7.31012 30.5114 7.3978C31.0539 7.51721 31.5755 7.65805 32.0798 7.81277L31.2157 8.66653C30.8852 8.99106 30.7005 9.43222 30.7017 9.89203V11.0152C24.2513 9.17038 17.3259 11.5579 13.4377 16.9673C9.54914 22.3763 9.54914 29.6237 13.4377 35.0327C17.3259 40.4421 24.2513 42.8296 30.7017 40.9848V42.108C30.7005 42.5678 30.8856 43.0089 31.2157 43.3335L32.0798 44.1868C31.5755 44.3423 31.0539 44.4828 30.5114 44.6022ZM39.4735 32.9332C40.9267 32.9332 42.1052 34.0972 42.1052 35.5334C42.1052 36.9691 40.9267 38.1331 39.4735 38.1331C38.0203 38.1331 36.8418 36.9691 36.8418 35.5334C36.8434 34.098 38.0207 32.9348 39.4735 32.9332ZM30.7017 35.754V39.1619C24.9107 41.059 18.5422 39.0428 14.9463 34.173C11.3501 29.3036 11.3501 22.6964 14.9463 17.827C18.5422 12.9572 24.9107 10.941 30.7017 12.8381V16.246L27.597 21.8772C27.183 21.7439 26.7509 21.6729 26.3157 21.6665C23.8935 21.6665 21.9296 23.6069 21.9296 26C21.9296 28.3931 23.8935 30.3335 26.3157 30.3335C26.7509 30.3271 27.183 30.2561 27.597 30.1228L30.7017 35.754ZM45.6139 28.6002C44.1603 28.6002 42.9822 27.4358 42.9822 26C42.9822 24.5642 44.1603 23.3998 45.6139 23.3998C47.0671 23.3998 48.2452 24.5642 48.2452 26C48.2436 27.4354 47.0667 28.5986 45.6139 28.6002Z" fill="black"/>
</svg>
