<svg width="45" height="45" viewBox="0 0 45 45" fill="none" xmlns="http://www.w3.org/2000/svg">
<g clip-path="url(#clip0)">
<path d="M23.6128 21.3882C23.2691 21.0446 22.7128 21.0446 22.3691 21.3882C22.0264 21.731 22.0264 22.2873 22.3691 22.631C22.7128 22.9738 23.2691 22.9738 23.6128 22.631C23.9556 22.2873 23.9556 21.731 23.6128 21.3882Z" fill="black"/>
<path d="M34.7987 10.2015C33.0814 8.48416 30.3012 8.48407 28.5837 10.2015C26.8708 11.9144 26.8708 14.7022 28.584 16.4165C30.2975 18.129 33.0854 18.1297 34.7987 16.4164C36.5159 14.6992 36.5163 11.9189 34.7987 10.2015ZM33.5558 15.1733C32.5281 16.2011 30.8552 16.2011 29.827 15.1735C28.7991 14.145 28.799 12.4721 29.8268 11.4444C30.8571 10.4141 32.5253 10.4139 33.5558 11.4444C34.5861 12.4747 34.5863 14.1429 33.5558 15.1733Z" fill="black"/>
<path d="M44.7424 0.25744C44.5698 0.0849108 44.3343 -0.00860465 44.0894 0.000623847C43.8907 0.00774297 39.1591 0.197938 33.5345 2.18593C29.0275 3.77728 25.2708 6.05566 22.3688 8.9578C21.7185 9.6081 21.0856 10.2977 20.4802 11.0141C17.6107 9.32501 15.3113 9.85464 13.8577 10.6326C10.5108 12.4238 8.43909 17.2873 8.43909 20.766C8.43935 21.1214 8.65354 21.4419 8.9819 21.5779C9.09062 21.623 9.20488 21.6449 9.31808 21.6449C9.54686 21.6449 9.77159 21.5555 9.93973 21.3874C11.7048 19.6223 13.882 19.7327 14.5932 19.8262L14.901 20.134C14.2952 21.5754 13.8073 23.0088 13.4494 24.4028C13.3202 24.9073 13.3638 25.4411 13.5558 25.9294C12.7096 26.3194 11.8932 26.892 11.1823 27.6029C8.91994 29.8654 8.46053 35.3791 8.44208 35.6127C8.42186 35.8691 8.51485 36.1215 8.69669 36.3033C8.86219 36.4687 9.08605 36.5608 9.31808 36.5608C9.34111 36.5608 9.36422 36.5599 9.38734 36.558C9.62095 36.5397 15.1348 36.0803 17.3972 33.8179C18.1078 33.1073 18.6803 32.291 19.0703 31.4449C19.5873 31.6482 20.1194 31.6733 20.5979 31.5507C21.9913 31.1929 23.4244 30.7051 24.866 30.0992L25.1738 30.407C25.2672 31.1183 25.3776 33.2955 23.6126 35.0604C23.3613 35.3117 23.2861 35.6898 23.4221 36.0181C23.5581 36.3466 23.8785 36.5607 24.2341 36.5607C27.7128 36.5607 32.5762 34.489 34.3674 31.1421C35.1453 29.6886 35.6749 27.3892 33.9859 24.5197C34.7019 23.9145 35.3916 23.2817 36.0421 22.6311C38.9443 19.729 41.2226 15.9722 42.8139 11.4656C44.802 5.84077 44.9921 1.1091 44.9992 0.910466C45.008 0.66657 44.9149 0.430057 44.7424 0.25744ZM10.4041 18.8755C10.9501 16.2333 12.5359 13.3339 14.6875 12.1823C16.1253 11.4129 17.6969 11.4883 19.3678 12.403C17.9443 14.2753 16.7067 16.2923 15.6751 18.4224C15.662 18.4143 15.5038 18.2154 15.2099 18.1491C15.0891 18.1218 12.7636 17.6216 10.4041 18.8755ZM16.1543 32.5748C14.9458 33.7833 12.1109 34.4207 10.3191 34.681C10.5794 32.889 11.2169 30.0542 12.4253 28.8458C13.102 28.1691 13.8867 27.656 14.6754 27.367L17.6331 30.3247C17.3441 31.1134 16.8311 31.8981 16.1543 32.5748ZM20.1612 29.8479C19.9069 29.913 19.6122 29.8174 19.3932 29.5987C18.2562 28.4617 17.8114 28.0168 17.6718 27.8774C17.4159 27.6214 16.7882 26.9938 15.4019 25.6074C15.1827 25.3878 15.0871 25.0933 15.1521 24.8393C15.4336 23.743 15.8018 22.6182 16.2495 21.4825L23.5176 28.7506C22.3818 29.1984 21.2571 29.5665 20.1612 29.8479ZM32.8178 30.3126C31.6663 32.4641 28.7669 34.05 26.1248 34.5959C26.9672 33.0106 27.1529 30.9925 26.8451 29.7689C26.7737 29.4846 26.5882 29.3417 26.5778 29.3249C28.7077 28.2933 30.7247 27.0558 32.5971 25.6322C33.5118 27.3033 33.5871 28.8751 32.8178 30.3126ZM34.7994 21.3881C34.0074 22.18 33.1546 22.9451 32.2646 23.662C30.1252 25.3847 27.7704 26.8439 25.2582 28.0054L16.9947 19.7421C18.1563 17.2297 19.6154 14.8749 21.3379 12.7358C22.0554 11.8452 22.8204 10.9923 23.6121 10.2007C26.2158 7.59691 29.5762 5.52463 33.6027 4.03295L40.9672 11.3975C39.4757 15.4238 37.4034 18.7842 34.7994 21.3881ZM41.5995 9.54377L35.4564 3.40058C38.8033 2.36101 41.715 1.97174 43.1684 1.83182C43.0284 3.28544 42.639 6.19716 41.5995 9.54377Z" fill="black"/>
<path d="M21.1264 36.3031C20.783 35.9599 20.2265 35.9601 19.8833 36.3033L17.3978 38.7897C17.0547 39.133 17.0548 39.6895 17.398 40.0326C17.7414 40.3758 18.2979 40.3758 18.641 40.0325L21.1265 37.546C21.4697 37.2027 21.4696 36.6462 21.1264 36.3031Z" fill="black"/>
<path d="M8.69712 23.8738C8.35399 23.5305 7.79756 23.5305 7.45417 23.8736L4.96775 26.3591C4.62445 26.7023 4.62436 27.2588 4.96748 27.6021C5.31052 27.9452 5.86695 27.9456 6.21043 27.6023L8.69685 25.1167C9.04015 24.7736 9.04024 24.2171 8.69712 23.8738Z" fill="black"/>
<path d="M14.9118 37.5468C14.5687 37.2036 14.0121 37.2036 13.6688 37.5467L7.71513 43.4995C7.37183 43.8427 7.37183 44.3993 7.71504 44.7425C8.05808 45.0857 8.61469 45.0859 8.95799 44.7426L14.9117 38.7897C15.255 38.4465 15.255 37.89 14.9118 37.5468Z" fill="black"/>
<path d="M7.88053 37.5468C7.5374 37.2036 6.98079 37.2036 6.63758 37.5467L0.683878 43.4995C0.340578 43.8427 0.340578 44.3993 0.68379 44.7425C1.02683 45.0857 1.58344 45.0859 1.92674 44.7426L7.88044 38.7897C8.22374 38.4465 8.22374 37.89 7.88053 37.5468Z" fill="black"/>
<path d="M7.45329 30.0883C7.11017 29.7451 6.55356 29.7451 6.21034 30.0884L0.25752 36.0421C-0.085692 36.3854 -0.085692 36.9418 0.257608 37.2851C0.600821 37.6283 1.15734 37.6283 1.50056 37.285L7.45338 31.3313C7.79659 30.988 7.79659 30.4316 7.45329 30.0883Z" fill="black"/>
<path d="M27.3412 17.6588C26.9979 17.3156 26.4416 17.3156 26.0982 17.6588L24.8554 18.9016C24.5122 19.2448 24.5122 19.8013 24.8554 20.1446C25.1987 20.4879 25.7552 20.4879 26.0985 20.1446L27.3412 18.9019C27.6845 18.5587 27.6845 18.0021 27.3412 17.6588Z" fill="black"/>
</g>
<defs>
<clipPath id="clip0">
<rect width="45" height="45" fill="white"/>
</clipPath>
</defs>
</svg>
