<svg width="56" height="52" viewBox="0 0 56 52" fill="none" xmlns="http://www.w3.org/2000/svg">
<path d="M0.892137 22.3034H5.84141C6.13414 23.359 6.55581 24.3745 7.09807 25.3262L3.59503 28.8279C3.42776 28.9952 3.33367 29.222 3.33367 29.459C3.33367 29.696 3.42776 29.9228 3.59503 30.0901L7.37965 33.8758C7.72814 34.2236 8.29269 34.2236 8.64118 33.8758L12.1446 30.372C13.0963 30.9139 14.1108 31.336 15.1663 31.6284V36.5776C15.1663 37.0704 15.5657 37.4698 16.0585 37.4698H21.4113C21.9041 37.4698 22.3034 37.0704 22.3034 36.5776V31.6284C23.359 31.336 24.3735 30.9139 25.3252 30.372L28.8286 33.8758C29.1826 34.2103 29.7364 34.2103 30.0901 33.8758L33.8754 30.0901C34.0427 29.9228 34.1368 29.696 34.1368 29.459C34.1368 29.222 34.0427 28.9952 33.8754 28.8279L30.3717 25.3262C30.9139 24.3745 31.3356 23.359 31.6284 22.3034H36.5776C37.0704 22.3034 37.4698 21.9041 37.4698 21.4113V16.0585C37.4698 15.566 37.0704 15.1663 36.5776 15.1663H31.6284C31.3356 14.1111 30.9139 13.0956 30.3717 12.1439L33.8747 8.64223C34.042 8.47495 34.1361 8.24809 34.1361 8.01111C34.1361 7.77414 34.042 7.54727 33.8747 7.38L30.0901 3.59434C29.7416 3.24619 29.1771 3.24619 28.8286 3.59434L25.3252 7.09807C24.3735 6.55651 23.3587 6.13449 22.3034 5.84176V0.892137C22.3034 0.399719 21.9041 0 21.4113 0H16.0585C15.5657 0 15.1663 0.399719 15.1663 0.892137V5.84176C14.1111 6.13449 13.0963 6.55651 12.1446 7.09807L8.64118 3.59434C8.28712 3.25979 7.73337 3.25979 7.37965 3.59434L3.59434 7.38C3.42706 7.54727 3.33297 7.77414 3.33297 8.01111C3.33297 8.24809 3.42706 8.47495 3.59434 8.64223L7.09807 12.1439C6.55581 13.0956 6.13414 14.1111 5.84141 15.1663H0.892137C0.399371 15.1663 0 15.566 0 16.0585V21.4113C0 21.9041 0.399371 22.3034 0.892137 22.3034ZM1.78427 16.9506H6.53943C6.95867 16.9506 7.32145 16.6589 7.41101 16.2494C7.70374 14.9133 8.2331 13.6399 8.97399 12.4899C9.20016 12.1372 9.14998 11.6741 8.85342 11.3775L5.48664 8.01076L8.01042 5.48664L11.3765 8.85342C11.6731 9.15068 12.1365 9.20086 12.4899 8.97434C13.6403 8.2338 14.9133 7.70444 16.2494 7.41136C16.6586 7.32145 16.9506 6.95867 16.9506 6.53943V1.78427H20.5192V6.53943C20.5192 6.95867 20.8112 7.32145 21.2203 7.41136C22.5564 7.70444 23.8295 8.2338 24.9798 8.97434C25.3332 9.20086 25.7967 9.15068 26.0933 8.85342L29.4593 5.48664L31.9824 8.01076L28.6163 11.3765C28.3191 11.6734 28.2692 12.1369 28.4958 12.4899C29.2367 13.6406 29.7653 14.9137 30.0577 16.2501C30.1476 16.6596 30.5104 16.9517 30.9293 16.9517H35.6855V20.5202H30.9293C30.5104 20.5202 30.1476 20.8119 30.0577 21.2214C29.7653 22.5575 29.2363 23.8305 28.4958 24.9798C28.2696 25.3329 28.3198 25.796 28.6163 26.0926L31.9831 29.4586L29.4593 31.9835L26.0933 28.6163C25.7967 28.3194 25.3332 28.2692 24.9798 28.4958C23.8302 29.2367 22.5575 29.766 21.2214 30.0587C20.8115 30.148 20.5192 30.5111 20.5192 30.9303V35.6855H16.9506V30.9303C16.9506 30.5111 16.6582 30.148 16.2484 30.0587C14.9123 29.766 13.6396 29.2367 12.4899 28.4958C12.1365 28.2692 11.6731 28.3194 11.3765 28.6163L8.01042 31.9835L5.48734 29.4593L8.85342 26.0933C9.15068 25.7967 9.20051 25.3332 8.97399 24.9798C8.2331 23.8295 7.70374 22.5561 7.41101 21.2196C7.3211 20.8101 6.95867 20.5192 6.53943 20.5192H1.78427V16.9506Z" fill="black"/>
<path d="M18.7348 25.872C22.6766 25.872 25.8719 22.677 25.8719 18.7349C25.8719 14.7931 22.6766 11.5978 18.7348 11.5978C14.793 11.5978 11.5977 14.7931 11.5977 18.7349C11.6019 22.6746 14.7951 25.8678 18.7348 25.872ZM18.7348 13.3821C21.6907 13.3821 24.0877 15.779 24.0877 18.7349C24.0877 21.6912 21.6907 24.0877 18.7348 24.0877C15.7789 24.0877 13.382 21.6912 13.382 18.7349C13.3851 15.7797 15.7796 13.3852 18.7348 13.3821Z" fill="black"/>
<path d="M18.7348 28.5484C24.1545 28.5484 28.5483 24.155 28.5483 18.7349C28.5483 13.3152 24.1545 8.92138 18.7348 8.92138C13.315 8.92138 8.92127 13.3152 8.92127 18.7349C8.92789 24.1522 13.3175 28.5421 18.7348 28.5484ZM18.7348 10.7057C23.1693 10.7057 26.764 14.3003 26.764 18.7349C26.764 23.1694 23.1693 26.7641 18.7348 26.7641C14.3002 26.7641 10.7055 23.1694 10.7055 18.7349C10.7104 14.3028 14.3023 10.7105 18.7348 10.7057Z" fill="black"/>
<path d="M50.8518 41.0384V33.9013C50.8518 33.4088 50.4524 33.0091 49.9597 33.0091H48.1754V25.872C48.1754 25.3796 47.776 24.9799 47.2833 24.9799H39.254C38.7613 24.9799 38.3619 25.3796 38.3619 25.872V33.0091H33.9012C33.4084 33.0091 33.0091 33.4088 33.0091 33.9013V41.0384H4.46069C1.99825 41.0415 0.00313642 43.0366 0 45.499V47.2833C0.00313642 49.7461 1.99825 51.7412 4.46069 51.744H50.8518C53.3143 51.7412 55.3094 49.7461 55.3125 47.2833V45.499C55.3094 43.0366 53.3143 41.0415 50.8518 41.0384ZM49.0675 41.0384H42.8226V34.7934H49.0675V41.0384ZM40.1462 26.7642H46.3911V33.0091H40.1462V26.7642ZM34.7934 34.7934H41.0383V41.0384H34.7934V34.7934ZM53.5282 47.2833C53.5282 48.7616 52.3298 49.9597 50.8518 49.9597H4.46069C2.98274 49.9597 1.78427 48.7616 1.78427 47.2833V45.499C1.78427 44.0211 2.98274 42.8226 4.46069 42.8226H50.8518C52.3298 42.8226 53.5282 44.0211 53.5282 45.499V47.2833Z" fill="black"/>
<path d="M27.6562 43.7147C26.1782 43.7147 24.9798 44.9132 24.9798 46.3911C24.9798 47.8694 26.1782 49.0676 27.6562 49.0676C29.1341 49.0676 30.3326 47.8694 30.3326 46.3911C30.3326 44.9132 29.1341 43.7147 27.6562 43.7147ZM27.6562 47.2833C27.1634 47.2833 26.764 46.8839 26.764 46.3911C26.764 45.8987 27.1634 45.499 27.6562 45.499C28.1489 45.499 28.5483 45.8987 28.5483 46.3911C28.5483 46.8839 28.1489 47.2833 27.6562 47.2833Z" fill="black"/>
<path d="M18.7349 43.7147C17.2569 43.7147 16.0585 44.9132 16.0585 46.3911C16.0585 47.8694 17.2569 49.0676 18.7349 49.0676C20.2128 49.0676 21.4113 47.8694 21.4113 46.3911C21.4113 44.9132 20.2128 43.7147 18.7349 43.7147ZM18.7349 47.2833C18.2421 47.2833 17.8427 46.8839 17.8427 46.3911C17.8427 45.8987 18.2421 45.499 18.7349 45.499C19.2276 45.499 19.627 45.8987 19.627 46.3911C19.627 46.8839 19.2276 47.2833 18.7349 47.2833Z" fill="black"/>
<path d="M36.5776 43.7147C35.0997 43.7147 33.9012 44.9132 33.9012 46.3911C33.9012 47.8694 35.0997 49.0676 36.5776 49.0676C38.0556 49.0676 39.254 47.8694 39.254 46.3911C39.254 44.9132 38.0556 43.7147 36.5776 43.7147ZM36.5776 47.2833C36.0849 47.2833 35.6855 46.8839 35.6855 46.3911C35.6855 45.8987 36.0849 45.499 36.5776 45.499C37.0704 45.499 37.4698 45.8987 37.4698 46.3911C37.4698 46.8839 37.0704 47.2833 36.5776 47.2833Z" fill="black"/>
<path d="M9.81349 43.7147C8.33554 43.7147 7.13708 44.9132 7.13708 46.3911C7.13708 47.8694 8.33554 49.0676 9.81349 49.0676C11.2914 49.0676 12.4899 47.8694 12.4899 46.3911C12.4899 44.9132 11.2914 43.7147 9.81349 43.7147ZM9.81349 47.2833C9.32072 47.2833 8.92135 46.8839 8.92135 46.3911C8.92135 45.8987 9.32072 45.499 9.81349 45.499C10.3063 45.499 10.7056 45.8987 10.7056 46.3911C10.7056 46.8839 10.3063 47.2833 9.81349 47.2833Z" fill="black"/>
<path d="M45.4989 43.7147C44.0209 43.7147 42.8225 44.9132 42.8225 46.3911C42.8225 47.8694 44.0209 49.0676 45.4989 49.0676C46.9769 49.0676 48.1753 47.8694 48.1753 46.3911C48.1753 44.9132 46.9769 43.7147 45.4989 43.7147ZM45.4989 47.2833C45.0061 47.2833 44.6068 46.8839 44.6068 46.3911C44.6068 45.8987 45.0061 45.499 45.4989 45.499C45.9917 45.499 46.391 45.8987 46.391 46.3911C46.391 46.8839 45.9917 47.2833 45.4989 47.2833Z" fill="black"/>
</svg>
