<svg width="65" height="50" viewBox="0 0 65 50" fill="none" xmlns="http://www.w3.org/2000/svg">
<path d="M63.7305 47.4026H58.1445V45.6778C58.1445 44.9604 57.5762 44.3791 56.875 44.3791C56.1738 44.3791 55.6055 44.9604 55.6055 45.6778V47.4026H33.7695V45.6778C33.7695 44.9604 33.2012 44.3791 32.5 44.3791C31.7988 44.3791 31.2305 44.9604 31.2305 45.6778V47.4026H9.39453V45.6778C9.39453 44.9604 8.82622 44.3791 8.125 44.3791C7.42378 44.3791 6.85547 44.9604 6.85547 45.6778V47.4026H1.26953C0.568314 47.4026 0 47.984 0 48.7013C0 49.4186 0.568314 50 1.26953 50H63.7305C64.4317 50 65 49.4186 65 48.7013C65 47.984 64.4317 47.4026 63.7305 47.4026Z" fill="#61CE70"/>
<path d="M63.7305 39.0909H45.6273C49.0624 37.6694 52.2715 35.6828 55.1453 33.1767V34.2467C55.1453 34.964 55.7136 35.5454 56.4148 35.5454C57.116 35.5454 57.6843 34.964 57.6843 34.2467V30.1689C57.6843 29.4516 57.116 28.8702 56.4148 28.8702H52.4287C51.7274 28.8702 51.1591 29.4516 51.1591 30.1689C51.1591 30.8863 51.7274 31.4676 52.4287 31.4676H53.1874C47.3818 36.4032 40.143 39.0909 32.5 39.0909C24.857 39.0909 17.6182 36.4032 11.8126 31.4676H12.5713C13.2726 31.4676 13.8409 30.8863 13.8409 30.1689C13.8409 29.4516 13.2726 28.8702 12.5713 28.8702H8.58521C7.88399 28.8702 7.31567 29.4516 7.31567 30.1689V34.2467C7.31567 34.964 7.88399 35.5454 8.58521 35.5454C9.28642 35.5454 9.85474 34.964 9.85474 34.2467V33.1767C12.7285 35.6823 15.9376 37.6689 19.3727 39.0909H6.34766C5.64644 39.0909 5.07812 39.6723 5.07812 40.3896C5.07812 41.1069 5.64644 41.6883 6.34766 41.6883H19.0593V43.4132C19.0593 44.1305 19.6276 44.7118 20.3289 44.7118C21.0296 44.7118 21.5984 44.1305 21.5984 43.4132V41.6883H43.4343V43.4132C43.4343 44.1305 44.0026 44.7118 44.7039 44.7118C45.4046 44.7118 45.9734 44.1305 45.9734 43.4132V41.6883H63.7305C64.4317 41.6883 65 41.1069 65 40.3896C65 39.6723 64.4317 39.0909 63.7305 39.0909Z" fill="#61CE70"/>
<path d="M1.26953 41.6883C1.60328 41.6883 1.93108 41.5493 2.16713 41.3078C2.40318 41.0664 2.53906 40.731 2.53906 40.3896C2.53906 40.0482 2.40318 39.7129 2.16713 39.4714C1.93108 39.2299 1.60328 39.0909 1.26953 39.0909C0.935783 39.0909 0.607986 39.2299 0.371933 39.4714C0.135879 39.7129 0 40.0482 0 40.3896C0 40.731 0.135879 41.0664 0.371933 41.3078C0.607986 41.5493 0.935783 41.6883 1.26953 41.6883Z" fill="#61CE70"/>
<path d="M32.5 33.5065C39.7319 33.5065 45.6149 27.503 45.6149 20.1233C45.6149 17.0657 44.5789 14.0787 42.6959 11.7066C42.6934 11.703 42.691 11.7 42.6885 11.6964L34.5506 1.007C34.0651 0.368811 33.3336 0.00202922 32.5431 0C32.5412 0 32.5392 0 32.5367 0C31.7492 0 31.0177 0.36323 30.5307 0.997362L22.3586 11.629C22.3403 11.6533 22.3224 11.6777 22.3061 11.703C20.4211 14.0767 19.3851 17.0617 19.3851 20.1233C19.3851 27.503 25.2681 33.5065 32.5 33.5065ZM24.3413 13.2599C24.373 13.2209 24.4023 13.1798 24.4291 13.1377L32.5298 2.59842C32.5332 2.5969 32.5412 2.5969 32.5476 2.60248L40.6602 13.2594C40.6741 13.2787 40.688 13.298 40.7034 13.3163C42.2332 15.2313 43.0758 17.6491 43.0758 20.1233C43.0758 26.0709 38.3314 30.9091 32.5 30.9091C26.6681 30.9091 21.9237 26.0709 21.9237 20.1233C21.9242 17.6223 22.7826 15.1852 24.3413 13.2599Z" fill="#61CE70"/>
<path d="M32.5 26.3636C35.8707 26.3636 38.6131 23.5643 38.6131 20.1233C38.6131 19.4059 38.0448 18.8246 37.3436 18.8246C36.6428 18.8246 36.074 19.4059 36.074 20.1233C36.074 22.1322 34.4707 23.7662 32.5 23.7662C31.7988 23.7662 31.2305 24.3476 31.2305 25.0649C31.2305 25.7823 31.7988 26.3636 32.5 26.3636Z" fill="#61CE70"/>
</svg>
