<svg width="54" height="53" viewBox="0 0 54 53" fill="none" xmlns="http://www.w3.org/2000/svg">
<path d="M10.9341 17.8048C10.6556 17.8048 10.3849 17.9151 10.1884 18.108C9.99143 18.3005 9.87937 18.5678 9.87937 18.8399C9.87937 19.112 9.99143 19.3793 10.1884 19.5714C10.3849 19.7643 10.6568 19.8751 10.9341 19.8751C11.2117 19.8751 11.4824 19.7643 11.6798 19.5714C11.8759 19.3793 11.9887 19.112 11.9887 18.8399C11.9887 18.5678 11.8759 18.3005 11.6798 18.108C11.4836 17.9155 11.2117 17.8048 10.9341 17.8048Z" fill="#61CE70"/>
<path d="M6.83396 12.2557C5.2095 13.8501 3.15245 14.8845 0.885693 15.2464C0.310558 15.3386 -0.0795932 15.8703 0.0139278 16.4344C0.0983852 16.9427 0.545803 17.3037 1.05378 17.3037C1.10981 17.3037 1.16708 17.2993 1.22435 17.29C3.93069 16.8577 6.38613 15.6232 8.32536 13.7199C8.78554 13.2682 9.31042 12.8861 9.87896 12.5849V14.6993C9.87896 15.271 10.3515 15.7344 10.9336 15.7344C11.5162 15.7344 11.9883 15.271 11.9883 14.6993V6.83772C11.9883 6.8365 11.9883 6.83529 11.9883 6.83408V1.03516C11.9883 0.4638 11.5162 0 10.9336 0C10.3515 0 9.87896 0.4638 9.87896 1.03516V5.97522C7.59779 6.53445 5.52796 7.68202 3.85076 9.32776C3.00619 10.1567 1.94903 10.7487 0.792995 11.0398C0.228573 11.1817 -0.111316 11.7458 0.0332912 12.2994C0.155651 12.7672 0.584118 13.0778 1.0542 13.0778C1.14112 13.0778 1.22929 13.0673 1.31704 13.045C2.83892 12.6621 4.23103 11.8829 5.34257 10.7919C6.62055 9.53762 8.17086 8.62822 9.87937 8.12156V10.3095C8.74229 10.7414 7.70078 11.405 6.83396 12.2557Z" fill="#61CE70"/>
<path d="M43.031 50.9294C42.7537 50.9294 42.4814 51.0402 42.2853 51.2326C42.0892 51.4251 41.9763 51.6924 41.9763 51.9645C41.9763 52.2367 42.0892 52.504 42.2853 52.6964C42.4814 52.8889 42.7537 52.9997 43.031 52.9997C43.3083 52.9997 43.5806 52.8889 43.7767 52.6964C43.9728 52.504 44.0857 52.2367 44.0857 51.9645C44.0857 51.6924 43.9728 51.4251 43.7767 51.2326C43.5806 51.0402 43.3083 50.9294 43.031 50.9294Z" fill="#61CE70"/>
<path d="M53.1143 45.2169C50.8472 44.855 48.7906 43.8207 47.1661 42.2263C46.2898 41.3662 45.2368 40.6982 44.0857 40.2668V38.0812C45.8078 38.5859 47.3704 39.4989 48.6575 40.7621C49.769 41.8531 51.1611 42.6323 52.683 43.0156C52.7707 43.0378 52.8589 43.0483 52.9458 43.0483C53.4159 43.0483 53.8444 42.7374 53.9667 42.27C54.1113 41.716 53.771 41.1523 53.207 41.01C52.051 40.7188 50.9934 40.1273 50.1493 39.2983C48.463 37.6437 46.3808 36.4933 44.0857 35.9373V32.0668C46.3092 31.5274 48.4148 30.4069 50.1489 28.705C50.9934 27.876 52.0506 27.2845 53.207 26.9933C53.771 26.851 54.1113 26.2873 53.9663 25.7333C53.8217 25.1794 53.247 24.8458 52.683 24.9877C51.1607 25.371 49.7686 26.1502 48.6575 27.2412C44.4025 31.417 37.4795 31.417 33.2249 27.2412C32.3548 26.3872 31.3067 25.7212 30.1639 25.2894V23.1038C31.8785 23.6101 33.4371 24.5215 34.7163 25.777C36.4326 27.4616 38.6866 28.3038 40.941 28.3038C43.1954 28.3038 45.4498 27.4612 47.1661 25.777C48.7906 24.1826 50.8472 23.1483 53.1143 22.7864C53.6891 22.6946 54.0792 22.1629 53.9857 21.5984C53.8922 21.0343 53.3512 20.651 52.7753 20.7432C50.0689 21.1754 47.6135 22.4099 45.6743 24.3132C45.1935 24.7851 44.6571 25.1693 44.0857 25.4673V12.5666C44.6678 12.8703 45.2046 13.2585 45.6743 13.7199C47.6139 15.6232 50.0694 16.8577 52.7753 17.2895C52.8325 17.2988 52.8898 17.3033 52.9458 17.3033C53.4538 17.3033 53.9016 16.9422 53.9857 16.4343C54.0792 15.8698 53.6891 15.3381 53.1139 15.2463C50.8472 14.8844 48.7901 13.8501 47.1657 12.2557C46.2894 11.3956 45.2364 10.7276 44.0853 10.2962V8.11061C45.8074 8.61525 47.37 9.52829 48.6571 10.7915C49.7686 11.8825 51.1607 12.6617 52.6826 13.045C52.7707 13.0672 52.8589 13.0777 52.9454 13.0777C53.4155 13.0777 53.844 12.7668 53.9663 12.2994C54.1109 11.7458 53.771 11.1817 53.207 11.0394C52.0506 10.7482 50.993 10.1563 50.1489 9.32773C48.463 7.6731 46.3808 6.5227 44.0857 5.96671V1.03516C44.0857 0.463799 43.6131 0 43.031 0C42.4484 0 41.9763 0.463799 41.9763 1.03516V26.1547C41.2776 26.261 40.5653 26.2586 39.8669 26.1478V6.86195C39.8686 6.83001 39.8682 6.79807 39.8669 6.76572V1.03516C39.8669 0.463799 39.3944 0 38.8123 0C38.2297 0 37.7576 0.463799 37.7576 1.03516V5.97641C35.4776 6.53604 33.4091 7.6832 31.7331 9.32773C31.263 9.78951 30.7345 10.1732 30.1639 10.4741V1.03516C30.1639 0.463799 29.6917 0 29.1092 0C28.5266 0 28.0545 0.463799 28.0545 1.03516V11.1672C27.7088 11.2205 27.3566 11.2484 26.9998 11.2484C26.643 11.2484 26.2908 11.2205 25.9451 11.1672V1.03516C25.9451 0.463799 25.473 0 24.8904 0C24.3083 0 23.8358 0.463799 23.8358 1.03516V10.4737C23.2652 10.1732 22.7366 9.7891 22.2665 9.32773C20.5815 7.6739 18.501 6.52391 16.207 5.96751V1.03516C16.207 0.463799 15.7349 0 15.1523 0C14.5702 0 14.0977 0.463799 14.0977 1.03516V26.1539C13.3989 26.2606 12.6866 26.259 11.9883 26.1486V22.9805C11.9883 22.4087 11.5162 21.9453 10.9336 21.9453C10.3515 21.9453 9.87892 22.4087 9.87892 22.9805V25.4479C9.32109 25.1527 8.79622 24.775 8.32533 24.3128C6.38611 22.4095 3.93067 21.175 1.22434 20.7428C0.650033 20.6514 0.107448 21.0339 0.0139277 21.5984C-0.0795929 22.1625 0.310557 22.6946 0.885689 22.7864C3.15243 23.1487 5.20948 24.1826 6.83394 25.777C8.55027 27.4616 10.8042 28.3038 13.0586 28.3038C15.3126 28.3038 17.5674 27.4612 19.2833 25.777C20.5654 24.5186 22.1215 23.6076 23.8358 23.1018V25.2885C22.6925 25.7204 21.6461 26.386 20.7747 27.2412C16.5201 31.417 9.59713 31.417 5.34255 27.2412C4.23101 26.1502 2.83891 25.371 1.31704 24.9877C0.752618 24.8454 0.177898 25.1794 0.0332911 25.7333C-0.111316 26.2873 0.228572 26.851 0.792992 26.9933C1.94902 27.2845 3.00618 27.876 3.85075 28.705C5.57573 30.398 7.66862 31.5153 9.87892 32.0579V35.9458C7.59776 36.5054 5.52753 37.6526 3.85075 39.2983C3.00618 40.1273 1.94902 40.7188 0.792992 41.01C0.228572 41.1523 -0.111316 41.716 0.0332911 42.27C0.155651 42.7374 0.584116 43.0483 1.05419 43.0483C1.14071 43.0483 1.22887 43.0378 1.31704 43.0156C2.83891 42.6323 4.23101 41.8531 5.34255 40.7625C6.62053 39.5082 8.17083 38.5988 9.87892 38.0921V40.2801C8.74184 40.712 7.70076 41.3755 6.83394 42.2263C5.20948 43.8207 3.15243 44.855 0.885689 45.2169C0.310557 45.3087 -0.0795929 45.8404 0.0139277 46.4049C0.0983848 46.9128 0.545801 47.2739 1.05378 47.2739C1.10981 47.2739 1.16708 47.2694 1.22434 47.2605C3.93067 46.8283 6.38611 45.5938 8.32533 43.6905C8.78551 43.2384 9.31038 42.8567 9.87892 42.5554V51.9644C9.87892 52.5362 10.3515 52.9996 10.9336 52.9996C11.5162 52.9996 11.9883 52.5362 11.9883 51.9644V36.8083C11.9883 36.8071 11.9883 36.8059 11.9883 36.8047V32.3988C12.3442 32.4275 12.7014 32.4424 13.0586 32.4424C13.4051 32.4424 13.7516 32.4283 14.0977 32.4012V51.9644C14.0977 52.5362 14.5702 52.9996 15.1523 52.9996C15.7349 52.9996 16.207 52.5362 16.207 51.9644V42.5393C16.7875 42.8429 17.3231 43.2303 17.7919 43.6905C19.4852 45.3524 21.5657 46.4995 23.8358 47.0515V51.9644C23.8358 52.5362 24.3083 52.9996 24.8904 52.9996C25.473 52.9996 25.9451 52.5362 25.9451 51.9644V47.3867C26.2941 47.4138 26.6459 47.4284 26.9998 47.4284C27.3537 47.4284 27.7055 47.4138 28.0545 47.3867V51.9648C28.0545 52.5362 28.5266 53 29.1092 53C29.6917 53 30.1639 52.5362 30.1639 51.9648V47.0515C32.4339 46.4991 34.5144 45.3524 36.2077 43.6905C36.6666 43.24 37.1903 42.8587 37.7576 42.5579V51.9648C37.7576 52.5362 38.2297 53 38.8123 53C39.3944 53 39.8669 52.5362 39.8669 51.9648V36.8326C39.8686 36.8006 39.8682 36.7687 39.8669 36.7359V32.3984C40.2241 32.4271 40.5826 32.4424 40.941 32.4424C41.2866 32.4424 41.6319 32.4283 41.9763 32.4016L41.9767 47.8238C41.9767 48.3956 42.4489 48.859 43.0314 48.859C43.6139 48.859 44.0861 48.3956 44.0861 47.8238L44.0857 42.5372C44.6678 42.8413 45.2046 43.2291 45.6747 43.6905C47.6139 45.5938 50.0694 46.8283 52.7757 47.2605C52.833 47.2694 52.8898 47.2739 52.9462 47.2739C53.4538 47.2739 53.9016 46.9132 53.9857 46.4049C54.0796 45.8408 53.6895 45.3091 53.1143 45.2169ZM26.9998 41.219C26.643 41.219 26.2912 41.1911 25.9451 41.1378V17.4145C26.2961 17.4424 26.648 17.4569 26.9998 17.4569C27.3516 17.4569 27.7035 17.4424 28.0545 17.4145V41.1378C27.7088 41.1911 27.357 41.219 26.9998 41.219ZM36.2077 24.3128C34.5309 22.6671 32.4512 21.5159 30.1639 20.9571V17.0764C32.3803 16.5354 34.4786 15.4165 36.2077 13.7199C36.6666 13.2694 37.1903 12.8881 37.7576 12.5873V25.4458C37.201 25.1507 36.6778 24.7742 36.2077 24.3128ZM20.7751 10.7915C22.4354 12.4215 24.6461 13.3187 26.9998 13.3187H27.0002C29.3535 13.3187 31.5646 12.4215 33.2249 10.7919C34.5017 9.5384 36.0507 8.6294 37.7576 8.12274V10.3115C36.6221 10.7434 35.5819 11.4061 34.7163 12.2557C30.4613 16.4319 23.5387 16.4319 19.2837 12.2561C18.4083 11.3968 17.3565 10.7292 16.207 10.2978V8.11182C17.9279 8.61646 19.4889 9.5295 20.7751 10.7915ZM17.7923 24.3132C17.3124 24.7839 16.7772 25.1672 16.2074 25.4652V12.5683C16.7879 12.8723 17.3235 13.2597 17.7923 13.7199C19.5214 15.417 21.6197 16.5354 23.8362 17.0764V20.9567C21.5484 21.5147 19.4732 22.6635 17.7923 24.3132ZM22.2665 28.705C22.7312 28.2488 23.2614 27.8643 23.8362 27.5618V40.4443C23.2656 40.1438 22.737 39.7597 22.2665 39.2983C20.5819 37.6445 18.501 36.4945 16.2074 35.9381V32.0656C18.4293 31.5258 20.5333 30.4061 22.2665 28.705ZM34.7163 42.2263C30.4613 46.4025 23.5383 46.4025 19.2837 42.2263C18.4087 41.367 17.3565 40.6998 16.2074 40.2684V38.0824C17.9279 38.5871 19.4889 39.5001 20.7751 40.7621C22.4358 42.3917 24.6465 43.2893 27.0002 43.2893C29.3539 43.2893 31.5646 42.3917 33.2249 40.7621C34.5021 39.509 36.0511 38.6 37.7576 38.0929V40.2817C36.6226 40.7136 35.5819 41.3767 34.7163 42.2263ZM37.7576 35.947C35.4776 36.5066 33.4091 37.6538 31.7335 39.2983C31.263 39.7601 30.7345 40.1438 30.1639 40.4447V27.5622C30.7386 27.8647 31.2692 28.2497 31.7335 28.705C33.4573 30.3972 35.5485 31.514 37.7576 32.0567V35.947Z" fill="#61CE70"/>
</svg>
