<svg width="50" height="53" viewBox="0 0 50 53" fill="none" xmlns="http://www.w3.org/2000/svg">
<path d="M49.3856 27.5117L49.3798 27.4911C49.2989 27.149 49.0535 26.8684 48.7234 26.7552C48.6187 26.7192 46.1155 25.8765 42.5524 26.1353C39.2733 26.3731 34.4267 27.6278 29.9576 32.2524C27.3388 34.9632 25.8397 37.8075 25.0001 40.3812C24.1605 37.8075 22.661 34.9632 20.0422 32.2524C15.5734 27.6278 10.7269 26.3731 7.4478 26.1353C3.88468 25.8765 1.3815 26.7192 1.27641 26.7552C0.946663 26.8684 0.700916 27.149 0.620043 27.4911L0.614573 27.5117C0.118392 29.3022 -1.95424 38.6485 5.95379 46.8335C10.4225 51.4586 15.2695 52.7129 18.5482 52.9507C19.0209 52.985 19.4745 53 19.907 53C22.7333 53 24.6285 52.3619 24.7192 52.3304C24.8215 52.2956 24.9157 52.2426 25.0001 52.1779C25.0845 52.2426 25.1786 52.2952 25.2806 52.3304C25.3716 52.3619 27.2665 53 30.0932 53C30.5253 53 30.9793 52.985 31.452 52.9507C34.7307 52.7129 39.5773 51.4586 44.046 46.8335C51.9544 38.6485 49.8814 29.3022 49.3856 27.5117ZM42.6071 28.2068C44.1308 28.0883 45.4451 28.1983 46.4054 28.3467L38.5392 36.4881V29.0382C39.8418 28.5946 41.1986 28.316 42.6071 28.2068ZM31.3723 33.7166C32.9605 32.0729 34.687 30.7895 36.5388 29.8712V38.5584L26.1855 49.2738C25.7487 46.2048 25.6748 39.6133 31.3723 33.7166ZM23.9511 45.3439C24.0652 46.9205 23.9589 48.2811 23.8159 49.2751L13.461 38.5584V29.8712C15.3129 30.7895 17.0397 32.0729 18.6275 33.7166C21.8417 37.0428 23.6331 40.955 23.9511 45.3439ZM7.39311 28.2068C8.80116 28.316 10.158 28.5946 11.4606 29.0382V36.4881L3.59439 28.3467C4.55511 28.1983 5.86979 28.0883 7.39311 28.2068ZM2.18321 29.8137L15.0843 43.1664H5.71312C5.64944 43.1664 5.58693 43.1733 5.52637 43.185C1.70617 37.9518 1.77415 32.6159 2.18321 29.8137ZM7.36849 45.3694C7.32551 45.3253 7.28449 45.2808 7.24269 45.2367H17.0846L22.4 50.738C19.4347 51.1897 13.0664 51.2665 7.36849 45.3694ZM31.3973 50.8791C29.8732 50.9976 28.5589 50.8872 27.5986 50.7392L32.9152 45.2367H42.7571C42.7153 45.2808 42.6743 45.3253 42.6313 45.3694C39.4175 48.696 35.6375 50.5496 31.3973 50.8791ZM44.4734 43.185C44.4129 43.1733 44.3508 43.1664 44.2867 43.1664H34.9155L47.817 29.8137C48.2256 32.6159 48.294 37.9518 44.4734 43.185Z" fill="#61CE70"/>
<path d="M24.5516 31.842C24.6926 31.9152 24.8462 31.952 25.0001 31.952C25.1536 31.952 25.3072 31.9152 25.4482 31.842C25.5373 31.7955 27.6545 30.6807 29.7646 28.1668C31.706 25.8551 34.02 21.8633 34.02 15.9762C34.02 5.55633 26.9485 0.970511 25.531 0.156943L25.517 0.14926C25.2263 -0.0327004 24.8614 -0.0513008 24.5516 0.110038C24.4625 0.156135 22.3453 1.27176 20.2348 3.78524C18.2938 6.09736 15.9798 10.0892 15.9798 15.9762C15.9798 21.8633 18.2938 25.8551 20.2348 28.1668C22.3453 30.6803 24.4625 31.7955 24.5516 31.842ZM28.3104 26.7422C27.4927 27.7277 26.668 28.4741 26.0003 29.0014V22.3008L32.0189 16.0716C31.9998 20.2106 30.7531 23.8005 28.3104 26.7422ZM21.6894 5.20979C22.9974 3.63401 24.323 2.66881 24.9958 2.23372C26.6441 3.2984 30.9195 6.66063 31.8423 13.3382C31.8107 13.3641 31.7798 13.3912 31.7509 13.4211L26.0003 19.3728V15.2734V15.2722V10.1005C26.0003 9.52874 25.5521 9.06534 25.0001 9.06534C24.4477 9.06534 23.9999 9.52874 23.9999 10.1005V12.7737L19.6785 8.30111C20.2204 7.20368 20.8904 6.17216 21.6894 5.20979ZM18.8381 10.3593L23.9999 15.7017V29.0006C21.8281 27.2784 17.9801 23.2065 17.9801 15.9762C17.9801 13.9718 18.2681 12.096 18.8381 10.3593Z" fill="#61CE70"/>
<path d="M25.0001 6.99544C25.263 6.99544 25.5213 6.88464 25.7069 6.69217C25.8932 6.49969 26.0003 6.23282 26.0003 5.96028C26.0003 5.68694 25.8932 5.42006 25.7069 5.22759C25.5213 5.03511 25.263 4.92513 25.0001 4.92513C24.7372 4.92513 24.4789 5.03511 24.2929 5.22759C24.107 5.42127 23.9999 5.68694 23.9999 5.96028C23.9999 6.23282 24.1066 6.49889 24.2929 6.69217C24.4789 6.88464 24.7372 6.99544 25.0001 6.99544Z" fill="#61CE70"/>
</svg>
