<svg width="52" height="52" viewBox="0 0 52 52" fill="none" xmlns="http://www.w3.org/2000/svg">
<path d="M50.9844 49.9686H46.5156V48.6196C46.5156 48.0586 46.061 47.6039 45.5 47.6039C44.939 47.6039 44.4844 48.0586 44.4844 48.6196V49.9686H27.0156V48.6196C27.0156 48.0586 26.561 47.6039 26 47.6039C25.439 47.6039 24.9844 48.0586 24.9844 48.6196V49.9686H7.51562V48.6196C7.51562 48.0586 7.06097 47.6039 6.5 47.6039C5.93903 47.6039 5.48438 48.0586 5.48438 48.6196V49.9686H1.01562C0.454651 49.9686 0 50.4233 0 50.9843C0 51.5453 0.454651 52 1.01562 52H50.9844C51.5453 52 52 51.5453 52 50.9843C52 50.4233 51.5453 49.9686 50.9844 49.9686Z" fill="#61CE70"/>
<path d="M50.9844 45.4995C51.2514 45.4995 51.5136 45.3908 51.7025 45.2019C51.8913 45.0131 52 44.7508 52 44.4838C52 44.2168 51.8913 43.9545 51.7025 43.7657C51.5136 43.5768 51.2526 43.4681 50.9844 43.4681C50.7174 43.4681 50.4551 43.5768 50.2663 43.7657C50.0775 43.9545 49.9688 44.2168 49.9688 44.4838C49.9688 44.7508 50.0775 45.0131 50.2663 45.2019C50.4551 45.3908 50.7174 45.4995 50.9844 45.4995Z" fill="#61CE70"/>
<path d="M1.01562 45.4995H15.2475V46.8485C15.2475 47.4095 15.7021 47.8642 16.2631 47.8642C16.8237 47.8642 17.2787 47.4095 17.2787 46.8485V45.4995H34.7475V46.8485C34.7475 47.4095 35.2021 47.8642 35.7631 47.8642C36.3237 47.8642 36.7787 47.4095 36.7787 46.8485V45.4995H46.9219C47.4828 45.4995 47.9375 45.0448 47.9375 44.4838C47.9375 43.9228 47.4828 43.4681 46.9219 43.4681H1.01562C0.454651 43.4681 0 43.9228 0 44.4838C0 45.0448 0.454651 45.4995 1.01562 45.4995Z" fill="#61CE70"/>
<path d="M4.08432 40.6896C4.65085 41.2562 5.40384 41.568 6.20483 41.568C7.00583 41.568 7.75882 41.2562 8.32535 40.6896L22.8289 26.1849C23.5216 25.4921 23.7335 24.4978 23.4649 23.6202L29.976 17.1086L31.3015 16.1231L31.5724 16.3944L31.3412 17.2701C31.2487 17.6196 31.3491 17.9922 31.605 18.2477L34.39 21.0333C34.5884 21.2317 34.8482 21.3309 35.1085 21.3309C35.3683 21.3309 35.6282 21.2317 35.8266 21.0333L41.5577 15.3018C41.7481 15.1109 41.8553 14.8526 41.8553 14.5836C41.8553 14.3142 41.7481 14.0559 41.5577 13.8651L38.7727 11.0798C38.5168 10.8239 38.1443 10.7236 37.7947 10.816L36.9192 11.0473L36.5649 10.6934L36.8438 10.182C37.0596 9.78641 36.989 9.29602 36.6704 8.97742L30.1355 2.442C26.8795 -0.814199 21.5816 -0.813803 18.3261 2.442L16.2278 4.54007C15.8315 4.93682 15.8311 5.57997 16.2278 5.97673L17.9865 7.73556C18.1769 7.92601 18.4352 8.03313 18.7046 8.03313C18.9739 8.03313 19.2322 7.92601 19.4226 7.73556C19.8606 7.29754 20.4426 7.05671 21.0615 7.05671C21.6804 7.05671 22.2624 7.29754 22.7 7.73556L24.5214 9.55709C24.7872 9.82291 24.934 10.1768 24.934 10.553C24.934 10.9291 24.7876 11.2826 24.5218 11.5484C24.5214 11.5484 24.5214 11.5488 24.5214 11.5488L17.8246 18.2461C16.8657 18.045 15.8271 18.3151 15.0844 19.0579L11.2599 22.8826C10.8632 23.2794 10.8632 23.9225 11.2599 24.3193C11.6567 24.7157 12.2998 24.7157 12.6961 24.3193L16.5206 20.4945C16.8979 20.1172 17.5116 20.1172 17.8889 20.4945L19.1731 21.7789L14.0874 26.8645C13.6911 27.2613 13.6907 27.9044 14.0874 28.3012C14.2858 28.4996 14.5457 28.5987 14.8055 28.5987C15.0658 28.5987 15.3256 28.4996 15.524 28.3012L20.6093 23.2151L21.3924 23.9987C21.5995 24.2054 21.5995 24.5423 21.3924 24.749L6.88919 39.2529C6.5119 39.6306 5.89777 39.6302 5.52087 39.2529L4.4505 38.1829L8.6221 34.0109C9.01883 33.6142 9.01883 32.971 8.6221 32.5743C8.22537 32.1779 7.58228 32.1779 7.18594 32.5743L3.01434 36.7462L2.32642 36.0582C1.94913 35.6809 1.94913 35.0671 2.32642 34.6898L7.30457 29.7109C7.70129 29.3145 7.70129 28.6714 7.30457 28.2746C6.90823 27.8778 6.26514 27.8778 5.86841 28.2746L0.889862 33.2535C-0.279297 34.4228 -0.279297 36.3256 0.889862 37.4949L4.08432 40.6896ZM24.1366 6.2989C23.3149 5.47761 22.2231 5.0253 21.0615 5.0253C20.2462 5.0253 19.4655 5.24788 18.7883 5.66448L18.3824 5.2586L19.7622 3.87867C22.2263 1.4144 26.2353 1.4144 28.6993 3.87867L34.6967 9.87648L34.4178 10.3879C34.202 10.7835 34.2726 11.2739 34.5916 11.5925L35.896 12.897C36.1515 13.1525 36.524 13.2533 36.8735 13.1608L37.7491 12.9291L39.4035 14.5836L35.1085 18.8789L33.4541 17.2249L33.6858 16.3488C33.7783 15.9993 33.6779 15.6271 33.422 15.3712L32.1176 14.0663C31.7613 13.7104 31.1975 13.6687 30.7933 13.9698L29.4083 14.9998L26.5685 12.1598C26.8276 11.6702 26.9652 11.1223 26.9652 10.553C26.9652 9.63406 26.6074 8.77031 25.9576 8.12042L24.1366 6.2989ZM25.2395 13.7036L27.8741 16.3381L22.2398 21.9729L19.6051 19.338L25.2395 13.7036Z" fill="#61CE70"/>
<path d="M9.31836 27.2767C9.58536 27.2767 9.8476 27.168 10.0364 26.9792C10.2253 26.7903 10.334 26.5281 10.334 26.261C10.334 25.994 10.2253 25.7318 10.0364 25.5429C9.8476 25.3541 9.58536 25.2453 9.31836 25.2453C9.05136 25.2453 8.78912 25.3541 8.60028 25.5429C8.41144 25.7318 8.30273 25.994 8.30273 26.261C8.30273 26.5281 8.41144 26.7903 8.60028 26.9792C8.78912 27.168 9.05136 27.2767 9.31836 27.2767Z" fill="#61CE70"/>
</svg>
