<svg width="19" height="19" viewBox="0 0 19 19" fill="none" xmlns="http://www.w3.org/2000/svg">
<path d="M13.0625 0H5.9375C2.65881 0 0 2.65881 0 5.9375V13.0625C0 16.3412 2.65881 19 5.9375 19H13.0625C16.3412 19 19 16.3412 19 13.0625V5.9375C19 2.65881 16.3412 0 13.0625 0ZM17.2188 13.0625C17.2188 15.3544 15.3544 17.2188 13.0625 17.2188H5.9375C3.64563 17.2188 1.78125 15.3544 1.78125 13.0625V5.9375C1.78125 3.64563 3.64563 1.78125 5.9375 1.78125H13.0625C15.3544 1.78125 17.2188 3.64563 17.2188 5.9375V13.0625Z" fill="black"/>
<path d="M13.0625 0H5.9375C2.65881 0 0 2.65881 0 5.9375V13.0625C0 16.3412 2.65881 19 5.9375 19H13.0625C16.3412 19 19 16.3412 19 13.0625V5.9375C19 2.65881 16.3412 0 13.0625 0ZM17.2188 13.0625C17.2188 15.3544 15.3544 17.2188 13.0625 17.2188H5.9375C3.64563 17.2188 1.78125 15.3544 1.78125 13.0625V5.9375C1.78125 3.64563 3.64563 1.78125 5.9375 1.78125H13.0625C15.3544 1.78125 17.2188 3.64563 17.2188 5.9375V13.0625Z" fill="url(#paint0_linear)"/>
<path d="M9.5 4.75C6.87681 4.75 4.75 6.87681 4.75 9.5C4.75 12.1232 6.87681 14.25 9.5 14.25C12.1232 14.25 14.25 12.1232 14.25 9.5C14.25 6.87681 12.1232 4.75 9.5 4.75ZM9.5 12.4688C7.86362 12.4688 6.53125 11.1364 6.53125 9.5C6.53125 7.86244 7.86362 6.53125 9.5 6.53125C11.1364 6.53125 12.4688 7.86244 12.4688 9.5C12.4688 11.1364 11.1364 12.4688 9.5 12.4688Z" fill="black"/>
<path d="M9.5 4.75C6.87681 4.75 4.75 6.87681 4.75 9.5C4.75 12.1232 6.87681 14.25 9.5 14.25C12.1232 14.25 14.25 12.1232 14.25 9.5C14.25 6.87681 12.1232 4.75 9.5 4.75ZM9.5 12.4688C7.86362 12.4688 6.53125 11.1364 6.53125 9.5C6.53125 7.86244 7.86362 6.53125 9.5 6.53125C11.1364 6.53125 12.4688 7.86244 12.4688 9.5C12.4688 11.1364 11.1364 12.4688 9.5 12.4688Z" fill="url(#paint1_linear)"/>
<path d="M14.6063 5.02669C14.9558 5.02669 15.2392 4.74331 15.2392 4.39375C15.2392 4.04419 14.9558 3.76081 14.6063 3.76081C14.2567 3.76081 13.9733 4.04419 13.9733 4.39375C13.9733 4.74331 14.2567 5.02669 14.6063 5.02669Z" fill="black"/>
<path d="M14.6063 5.02669C14.9558 5.02669 15.2392 4.74331 15.2392 4.39375C15.2392 4.04419 14.9558 3.76081 14.6063 3.76081C14.2567 3.76081 13.9733 4.04419 13.9733 4.39375C13.9733 4.74331 14.2567 5.02669 14.6063 5.02669Z" fill="url(#paint2_linear)"/>
<defs>
<linearGradient id="paint0_linear" x1="3" y1="2" x2="11.5" y2="19" gradientUnits="userSpaceOnUse">
<stop stop-color="#3094E5"/>
<stop offset="0.340544" stop-color="#92399F"/>
<stop offset="0.650458" stop-color="#DA346C"/>
<stop offset="0.970426" stop-color="#FED170"/>
</linearGradient>
<linearGradient id="paint1_linear" x1="3" y1="2" x2="11.5" y2="19" gradientUnits="userSpaceOnUse">
<stop stop-color="#3094E5"/>
<stop offset="0.340544" stop-color="#92399F"/>
<stop offset="0.650458" stop-color="#DA346C"/>
<stop offset="0.970426" stop-color="#FED170"/>
</linearGradient>
<linearGradient id="paint2_linear" x1="3" y1="2" x2="11.5" y2="19" gradientUnits="userSpaceOnUse">
<stop stop-color="#3094E5"/>
<stop offset="0.340544" stop-color="#92399F"/>
<stop offset="0.650458" stop-color="#DA346C"/>
<stop offset="0.970426" stop-color="#FED170"/>
</linearGradient>
</defs>
</svg>
