<svg width="40" height="34" viewBox="0 0 40 34" fill="none" xmlns="http://www.w3.org/2000/svg">
<path d="M39 24.619L39 32.2381C39 32.6586 38.6378 33 38.1915 33L9.89369 33C9.44741 33 9.08515 32.6587 9.08515 32.2381L9.08515 24.619C9.08515 24.1985 9.44734 23.8571 9.89369 23.8571L38.1915 23.8571C38.6378 23.8572 39 24.1985 39 24.619ZM10.7022 25.381L10.7022 31.4762L37.383 31.4762L37.383 25.381L10.7022 25.381Z" fill="white"/>
<path d="M34.9575 17L34.9575 24.619C34.9575 25.0396 34.5953 25.381 34.1489 25.381L1.80854 25.381C1.36226 25.381 1 25.0397 1 24.619L0.999999 17C0.999999 16.5794 1.36219 16.2381 1.80854 16.2381L34.1489 16.2381C34.5953 16.2381 34.9575 16.5794 34.9575 17ZM2.61707 17.7619L2.61707 23.8572L33.3405 23.8572L33.3405 17.7619L2.61707 17.7619Z" fill="white"/>
<path d="M39 9.38097L39 17C39 17.4206 38.6378 17.7619 38.1915 17.7619L9.89369 17.7619C9.44741 17.7619 9.08515 17.4206 9.08515 17L9.08515 9.38097C9.08515 8.96042 9.44734 8.61904 9.89369 8.61904L38.1915 8.61904C38.6378 8.61904 39 8.96041 39 9.38097ZM10.7021 10.1428L10.7021 16.2381L37.383 16.2381L37.383 10.1428L10.7021 10.1428Z" fill="white"/>
<path d="M34.9575 1.76193L34.9575 9.38097C34.9575 9.80152 34.5953 10.1429 34.1489 10.1429L1.80854 10.1429C1.36226 10.1429 0.999999 9.80159 0.999999 9.38097L0.999999 1.76193C0.999999 1.34138 1.36219 1 1.80854 1L34.1489 1C34.5953 1 34.9575 1.34131 34.9575 1.76193ZM2.61707 2.5238L2.61707 8.61904L33.3405 8.61904L33.3405 2.52379L2.61707 2.5238Z" fill="white"/>
<path d="M39 24.619L39 32.2381C39 32.6586 38.6378 33 38.1915 33L9.89369 33C9.44741 33 9.08515 32.6587 9.08515 32.2381L9.08515 24.619C9.08515 24.1985 9.44734 23.8571 9.89369 23.8571L38.1915 23.8571C38.6378 23.8572 39 24.1985 39 24.619ZM10.7022 25.381L10.7022 31.4762L37.383 31.4762L37.383 25.381L10.7022 25.381Z" stroke="white" stroke-width="0.6"/>
<path d="M34.9575 17L34.9575 24.619C34.9575 25.0396 34.5953 25.381 34.1489 25.381L1.80854 25.381C1.36226 25.381 1 25.0397 1 24.619L0.999999 17C0.999999 16.5794 1.36219 16.2381 1.80854 16.2381L34.1489 16.2381C34.5953 16.2381 34.9575 16.5794 34.9575 17ZM2.61707 17.7619L2.61707 23.8572L33.3405 23.8572L33.3405 17.7619L2.61707 17.7619Z" stroke="white" stroke-width="0.6"/>
<path d="M39 9.38097L39 17C39 17.4206 38.6378 17.7619 38.1915 17.7619L9.89369 17.7619C9.44741 17.7619 9.08515 17.4206 9.08515 17L9.08515 9.38097C9.08515 8.96042 9.44734 8.61904 9.89369 8.61904L38.1915 8.61904C38.6378 8.61904 39 8.96041 39 9.38097ZM10.7021 10.1428L10.7021 16.2381L37.383 16.2381L37.383 10.1428L10.7021 10.1428Z" stroke="white" stroke-width="0.6"/>
<path d="M34.9575 1.76193L34.9575 9.38097C34.9575 9.80152 34.5953 10.1429 34.1489 10.1429L1.80854 10.1429C1.36226 10.1429 0.999999 9.80159 0.999999 9.38097L0.999999 1.76193C0.999999 1.34138 1.36219 1 1.80854 1L34.1489 1C34.5953 1 34.9575 1.34131 34.9575 1.76193ZM2.61707 2.5238L2.61707 8.61904L33.3405 8.61904L33.3405 2.52379L2.61707 2.5238Z" stroke="white" stroke-width="0.6"/>
</svg>
