<svg width="46" height="32" viewBox="0 0 46 32" fill="none" xmlns="http://www.w3.org/2000/svg">
<path d="M1.21922 17.0542L13.8963 9.47386L12.3142 8.4714C12.0474 8.30152 11.8862 8.00798 11.8862 7.69229C11.8862 7.3766 12.0474 7.08306 12.3142 6.91318L22.5033 0.451761C22.8071 0.259732 23.1942 0.259732 23.4981 0.451761L33.6872 6.91335C33.954 7.08314 34.1152 7.37668 34.1152 7.69238C34.1152 8.00807 33.954 8.30161 33.6872 8.47149L32.1051 9.47577L44.7804 17.0542C45.0583 17.2204 45.2306 17.5195 45.2306 17.8425C45.2324 18.1656 45.0638 18.4665 44.786 18.6345L23.4815 31.5576C23.3333 31.648 23.1665 31.6924 22.9998 31.6924C22.8331 31.6924 22.6663 31.648 22.5181 31.5576L1.21366 18.6346C0.935773 18.4647 0.769043 18.1656 0.769043 17.8426C0.770867 17.5195 0.941331 17.2204 1.21922 17.0542ZM22.9998 2.32559L14.5354 7.69238L22.9998 13.0592L31.4642 7.69238L22.9998 2.32559ZM30.3582 10.5835L23.4982 14.933C23.3463 15.029 23.1721 15.077 22.9998 15.077C22.8275 15.077 22.6534 15.029 22.5033 14.933L15.6433 10.5816L14.4225 11.3126L22.9998 16.7533L31.5791 11.3127L30.3582 10.5835ZM42.5129 17.8481L33.3538 12.3743L24.7245 17.8463L33.4241 23.3626L42.5129 17.8481ZM22.9998 29.6875L31.6605 24.4333L22.9998 18.941L14.3391 24.4334L22.9998 29.6875ZM12.5754 23.3645L21.275 17.8463L12.6457 12.3743L3.48667 17.85L12.5754 23.3645Z" fill="white"/>
</svg>
