<svg width="32" height="32" viewBox="0 0 32 32" fill="none" xmlns="http://www.w3.org/2000/svg">
<path d="M30.6276 7.97527C27.7636 10.8398 27.9514 10.6583 27.8708 10.7179L20.2897 16.3162L23.2307 19.2574C25.5952 18.4147 28.2722 18.9973 30.0739 20.7993C32.0368 22.7626 32.5521 25.7641 31.3561 28.2681C31.0773 28.8516 30.3042 28.9837 29.8477 28.5269L27.4232 26.102C27.0579 25.7366 26.4634 25.7365 26.0978 26.102C25.7315 26.4684 25.7315 27.0613 26.0978 27.4277L28.5223 29.8526C28.9794 30.3098 28.8465 31.0828 28.2635 31.3612C25.76 32.5575 22.7591 32.0421 20.7962 30.0789C18.994 28.2765 18.4122 25.5988 19.2545 23.2344L15.8628 19.8423C15.1722 20.3796 16.0835 19.462 9.5794 26.3599L10.2612 27.0418C10.6925 27.4731 10.6026 28.1952 10.0807 28.5084L5.06108 31.5208C3.74526 32.3105 2.06857 32.1041 0.983508 31.0188C-0.101494 29.9336 -0.307932 28.2564 0.481569 26.9404L3.49339 21.9198C3.80701 21.3968 4.52933 21.3088 4.9597 21.7393L5.6027 22.3824C12.0731 15.5201 11.2215 16.4523 11.733 15.7944C11.7451 15.7789 11.7586 15.7651 11.7715 15.7505L8.7639 12.7426C6.40014 13.5851 3.72276 13.0032 1.92076 11.2007C-0.0421192 9.23745 -0.55737 6.236 0.638694 3.7319C0.917507 3.14841 1.69038 3.01639 2.14707 3.4731L4.57151 5.89806C4.93708 6.26357 5.53151 6.26344 5.89695 5.89806C6.26327 5.53168 6.26327 4.93882 5.89695 4.57243L3.47239 2.14747C3.01526 1.69032 3.14826 0.9173 3.73114 0.638809C4.63101 0.208852 5.59489 0 6.55202 0C8.25764 6.25119e-05 9.94115 0.663564 11.1985 1.92112C13.0007 3.72358 13.5825 6.40128 12.7402 8.76567L15.3087 11.3345L21.2889 4.06559C21.3344 4.01045 21.1843 4.16411 23.859 1.48891C24.8327 0.515035 26.1272 0.0101891 27.4001 0.0101891C28.3341 0.0101891 29.2566 0.28224 30.0314 0.840284C32.3958 2.54355 32.6746 5.92813 30.6276 7.97527ZM6.30427 24.3708C5.94095 24.7561 5.33189 24.7628 4.9597 24.3905L4.48301 23.9138L2.08882 27.905C1.7427 28.482 1.83313 29.2173 2.30888 29.6932C2.78464 30.1691 3.51982 30.2595 4.09664 29.9133L8.08708 27.5186L7.61039 27.0419C7.25195 26.6834 7.24345 26.1048 7.59127 25.736C15.0645 17.8101 13.889 19.0028 14.527 18.5065L13.1047 17.084C12.6131 17.7163 13.7545 16.4694 6.30427 24.3708ZM10.9722 9.64878C10.6913 9.36785 10.618 8.94039 10.7893 8.58189C11.6436 6.79329 11.2753 4.64932 9.87315 3.24687C8.97477 2.34832 7.77227 1.87423 6.55364 1.87436C6.33445 1.87436 6.11483 1.88967 5.89627 1.92068L7.22227 3.24693C8.32108 4.34589 8.32127 6.12479 7.22227 7.22388C6.12608 8.32034 4.34226 8.32027 3.24607 7.22388L1.92007 5.89762C1.71707 7.33133 2.1862 8.81505 3.24607 9.87513C4.64833 11.2777 6.79183 11.6458 8.58008 10.7915C8.93846 10.6203 9.36577 10.6935 9.64677 10.9745L21.0224 22.3514C21.3033 22.6324 21.3766 23.0598 21.2054 23.4183C20.3511 25.2069 20.7194 27.3509 22.1215 28.7534C23.1816 29.8136 24.6649 30.2827 26.0983 30.0796L24.7723 28.7534C24.2412 28.2223 23.9487 27.516 23.9487 26.7649C23.9487 26.0137 24.2412 25.3076 24.7723 24.7763C25.8685 23.6799 27.6523 23.68 28.7485 24.7763L30.0745 26.1026C30.2775 24.6689 29.8084 23.1852 28.7485 22.1251C27.3462 20.7226 25.2027 20.3543 23.4144 21.2087C23.0562 21.38 22.6287 21.3067 22.3478 21.0258L10.9722 9.64878ZM16.6363 12.6624L18.9494 14.9757L21.3069 13.2348L18.4903 10.4177C16.5753 12.7453 16.6948 12.605 16.6363 12.6624ZM28.9359 2.36151C27.8427 1.57411 26.2299 1.76871 25.1842 2.81454L22.7073 5.29188L19.6868 8.96327L22.8317 12.1087L26.701 9.25139L29.3022 6.6497C30.4911 5.46054 30.4147 3.42684 28.9359 2.36151Z" fill="white"/>
<path d="M27.9607 5.48575L24.2119 9.23528C23.846 9.60135 23.2525 9.60135 22.8865 9.23528C22.5205 8.86921 22.5205 8.27572 22.8865 7.90965L26.6353 4.16012C27.0013 3.79412 27.5947 3.79406 27.9607 4.16012C28.3267 4.52619 28.3267 5.11968 27.9607 5.48575Z" fill="white"/>
</svg>
