<svg width="41" height="27" viewBox="0 0 41 27" fill="none" xmlns="http://www.w3.org/2000/svg">
<path d="M30.9648 17.1818C28.1151 17.1818 25.7968 19.3839 25.7968 22.0909C25.7968 24.7978 28.1151 27 30.9648 27C33.8151 27 36.1329 24.7978 36.1329 22.0909C36.1329 19.3839 33.8146 17.1818 30.9648 17.1818ZM30.9648 24.5454C29.5398 24.5454 28.3808 23.4445 28.3808 22.0909C28.3808 20.7372 29.5398 19.6363 30.9648 19.6363C32.3899 19.6363 33.5489 20.7372 33.5489 22.0909C33.5489 23.4446 32.3899 24.5454 30.9648 24.5454Z" fill="white"/>
<path d="M13.3073 17.1818C10.4575 17.1818 8.13921 19.3839 8.13921 22.0909C8.13921 24.7978 10.4575 27 13.3073 27C16.157 27 18.4753 24.7978 18.4753 22.0909C18.4753 19.3839 16.157 17.1818 13.3073 17.1818ZM13.3073 24.5454C11.8822 24.5454 10.7232 23.4445 10.7232 22.0909C10.7232 20.7372 11.8822 19.6363 13.3073 19.6363C14.7319 19.6363 15.8913 20.7372 15.8913 22.0909C15.8913 23.4446 14.7323 24.5454 13.3073 24.5454Z" fill="white"/>
<path d="M34.4456 3.13036C34.226 2.71595 33.7794 2.45451 33.291 2.45451H26.4864V4.90908H32.4942L36.0123 11.556L38.3216 10.453L34.4456 3.13036Z" fill="white"/>
<path d="M27.0891 20.9047H17.3128V23.3592H27.0891V20.9047Z" fill="white"/>
<path d="M9.4318 20.9047H4.95289C4.23924 20.9047 3.66091 21.4541 3.66091 22.1319C3.66091 22.8098 4.23932 23.3591 4.95289 23.3591H9.43188C10.1455 23.3591 10.7239 22.8097 10.7239 22.1319C10.7239 21.454 10.1455 20.9047 9.4318 20.9047Z" fill="white"/>
<path d="M40.7287 13.4018L38.1873 10.2927C37.9432 9.99326 37.5663 9.81816 37.1671 9.81816H27.7784V1.22724C27.7784 0.549345 27.2 0 26.4865 0H4.95289C4.23924 0 3.66091 0.549421 3.66091 1.22724C3.66091 1.90506 4.23932 2.45448 4.95289 2.45448H25.1944V11.0454C25.1944 11.7233 25.7728 12.2726 26.4864 12.2726H36.5344L38.416 14.575V20.9045H34.8414C34.1277 20.9045 33.5494 21.4539 33.5494 22.1317C33.5494 22.8096 34.1278 23.359 34.8414 23.359H39.7079C40.4216 23.359 40.9999 22.8095 41 22.1317V14.1546C41 13.8821 40.9044 13.617 40.7287 13.4018Z" fill="white"/>
<path d="M9.34602 14.6865H3.40273C2.68907 14.6865 2.11075 15.2359 2.11075 15.9137C2.11075 16.5916 2.68915 17.141 3.40273 17.141H9.34594C10.0596 17.141 10.6379 16.5915 10.6379 15.9137C10.638 15.2359 10.0596 14.6865 9.34602 14.6865Z" fill="white"/>
<path d="M12.3172 9.85904H1.29198C0.578402 9.85904 0 10.4085 0 11.0864C0 11.7643 0.578402 12.3136 1.29198 12.3136H12.3172C13.0308 12.3136 13.6091 11.7642 13.6091 11.0864C13.6091 10.4085 13.0308 9.85904 12.3172 9.85904Z" fill="white"/>
<path d="M14.4279 5.0318H3.40273C2.68907 5.0318 2.11075 5.58122 2.11075 6.25904C2.11075 6.93694 2.68915 7.48629 3.40273 7.48629H14.4279C15.1416 7.48629 15.7199 6.93686 15.7199 6.25904C15.72 5.58122 15.1416 5.0318 14.4279 5.0318Z" fill="white"/>
</svg>
