<svg width="29" height="29" viewBox="0 0 29 29" fill="none" xmlns="http://www.w3.org/2000/svg">
<circle cx="14.5" cy="14.5" r="14.5" fill="#61CE70"/>
<path d="M12.18 13.982C12.6152 14.1601 12.9515 14.4469 13.1889 14.8426C13.4461 15.2185 13.5747 15.6735 13.5747 16.2076C13.5747 16.9198 13.3472 17.5034 12.8922 17.9584C12.4372 18.4134 11.8734 18.6409 11.2008 18.6409C10.4886 18.6409 9.90498 18.4134 9.44997 17.9584C8.99496 17.5034 8.76746 16.9198 8.76746 16.2076C8.76746 15.8515 8.80702 15.5053 8.88615 15.169C8.98507 14.8327 9.16311 14.3282 9.42029 13.6556L10.993 9.44183H13.367L12.18 13.982ZM18.471 13.982C18.9062 14.1601 19.2425 14.4469 19.4799 14.8426C19.7371 15.2185 19.8657 15.6735 19.8657 16.2076C19.8657 16.9198 19.6382 17.5034 19.1832 17.9584C18.7282 18.4134 18.1644 18.6409 17.4917 18.6409C16.7795 18.6409 16.196 18.4134 15.7409 17.9584C15.2859 17.5034 15.0584 16.9198 15.0584 16.2076C15.0584 15.8515 15.098 15.5053 15.1771 15.169C15.276 14.8327 15.4541 14.3282 15.7113 13.6556L17.284 9.44183H19.658L18.471 13.982Z" fill="white"/>
</svg>
