<svg width="70" height="70" viewBox="0 0 70 70" fill="none" xmlns="http://www.w3.org/2000/svg">
<path d="M35 0C15.7002 0 0 15.7002 0 35C0 54.2998 15.7002 70 35 70C54.2998 70 70 54.2998 70 35C70 15.7002 54.2998 0 35 0Z" fill="#61CE70"/>
<path d="M52.7393 27.5831L33.7808 46.541C33.212 47.1098 32.4654 47.3961 31.7188 47.3961C30.9722 47.3961 30.2256 47.1098 29.6568 46.541L20.1778 37.0621C19.0371 35.9218 19.0371 34.0783 20.1778 32.9381C21.318 31.7973 23.1611 31.7973 24.3018 32.9381L31.7188 40.3551L48.6153 23.4591C49.7555 22.3183 51.5986 22.3183 52.7393 23.4591C53.8795 24.5993 53.8795 26.4423 52.7393 27.5831Z" fill="#FAFAFA"/>
</svg>
